<svg xmlns="http://www.w3.org/2000/svg" viewBox="0 0 96 96" fill="none">
  <g stroke="currentColor" stroke-width="2.2" stroke-linecap="round" stroke-linejoin="round">
    <path d="M47 12c9 7 18 9 27 10v23c0 18-10 30-27 39C30 75 20 63 20 45V22c9-1 18-3 27-10Z"/>
    <path d="M47 25v42M34 40c0-7 5-12 13-12M32 48c0 8 6 13 15 13M60 37c0-5-4-9-10-9M63 47c0-6-5-10-13-10M61 57c-2 3-6 5-11 5"/>
    <circle cx="34" cy="40" r="2.5" fill="currentColor" stroke="none"/>
    <circle cx="63" cy="47" r="2.5" fill="currentColor" stroke="none"/>
    <circle cx="61" cy="57" r="2.5" fill="currentColor" stroke="none"/>
  </g>
</svg>
